<svg width="31" height="31" viewBox="0 0 31 31" fill="none" xmlns="http://www.w3.org/2000/svg">
<g clip-path="url(#clip0)">
<path d="M-30.5 17.5L22.4447 17.5L13.6742 26.228C12.6956 27.202 12.6918 28.7849 13.6658 29.7635C14.6398 30.7423 16.2228 30.7459 17.2015 29.772L30.2645 16.772C30.2653 16.7713 30.266 16.7704 30.2667 16.7696C31.2428 15.7956 31.246 14.2076 30.267 13.2304C30.2661 13.2296 30.2655 13.2288 30.2647 13.228L17.2017 0.228016C16.2232 -0.745734 14.6402 -0.74236 13.6661 0.236515C12.6921 1.21514 12.6958 2.79801 13.6745 3.77201L22.4447 12.5L-30.5 12.5C-31.8808 12.5 -33 13.6193 -33 15C-33 16.3808 -31.8808 17.5 -30.5 17.5Z" fill="black"/>
</g>
<defs>
<clipPath id="clip0">
<rect width="31" height="31" fill="white" transform="translate(31 31) rotate(-180)"/>
</clipPath>
</defs>
</svg>
