<svg width="116" height="14" viewBox="0 0 116 14" fill="none" xmlns="http://www.w3.org/2000/svg">
<path d="M8.47656 7.8418C8.35352 8.89453 7.96387 9.70801 7.30762 10.2822C6.65592 10.8519 5.78776 11.1367 4.70312 11.1367C3.52734 11.1367 2.58398 10.7152 1.87305 9.87207C1.16667 9.02897 0.813477 7.90104 0.813477 6.48828V5.53125C0.813477 4.60612 0.977539 3.79264 1.30566 3.09082C1.63835 2.389 2.10775 1.85124 2.71387 1.47754C3.31999 1.09928 4.02181 0.910156 4.81934 0.910156C5.87663 0.910156 6.72428 1.20638 7.3623 1.79883C8.00033 2.38672 8.37174 3.20247 8.47656 4.24609H7.15723C7.04329 3.45312 6.79492 2.87891 6.41211 2.52344C6.03385 2.16797 5.50293 1.99023 4.81934 1.99023C3.98079 1.99023 3.32227 2.30013 2.84375 2.91992C2.36979 3.53971 2.13281 4.42155 2.13281 5.56543V6.5293C2.13281 7.60938 2.3584 8.46842 2.80957 9.10645C3.26074 9.74447 3.89193 10.0635 4.70312 10.0635C5.43229 10.0635 5.99056 9.89941 6.37793 9.57129C6.76986 9.23861 7.02962 8.66211 7.15723 7.8418H8.47656ZM14.6426 11C14.5697 10.8542 14.5104 10.5944 14.4648 10.2207C13.877 10.8314 13.1751 11.1367 12.3594 11.1367C11.6302 11.1367 11.0309 10.9316 10.5615 10.5215C10.0967 10.1068 9.86426 9.58268 9.86426 8.94922C9.86426 8.17904 10.1559 7.58203 10.7393 7.1582C11.3271 6.72982 12.152 6.51562 13.2139 6.51562H14.4443V5.93457C14.4443 5.49251 14.3122 5.1416 14.0479 4.88184C13.7835 4.61751 13.3939 4.48535 12.8789 4.48535C12.4277 4.48535 12.0495 4.59928 11.7441 4.82715C11.4388 5.05501 11.2861 5.33073 11.2861 5.6543H10.0146C10.0146 5.28516 10.1445 4.92969 10.4043 4.58789C10.6686 4.24154 11.0241 3.9681 11.4707 3.76758C11.9219 3.56706 12.4163 3.4668 12.9541 3.4668C13.8063 3.4668 14.474 3.68099 14.957 4.10938C15.4401 4.5332 15.6908 5.11882 15.709 5.86621V9.27051C15.709 9.94954 15.7956 10.4896 15.9688 10.8906V11H14.6426ZM12.5439 10.0361C12.9404 10.0361 13.3164 9.93359 13.6719 9.72852C14.0273 9.52344 14.2848 9.25684 14.4443 8.92871V7.41113H13.4531C11.9036 7.41113 11.1289 7.86458 11.1289 8.77148C11.1289 9.16797 11.2611 9.47786 11.5254 9.70117C11.7897 9.92448 12.1292 10.0361 12.5439 10.0361ZM18.8809 3.60352L18.915 4.42383C19.4574 3.78581 20.1888 3.4668 21.1094 3.4668C22.1439 3.4668 22.848 3.86328 23.2217 4.65625C23.4678 4.30078 23.7868 4.01367 24.1787 3.79492C24.5752 3.57617 25.0423 3.4668 25.5801 3.4668C27.2025 3.4668 28.0273 4.32585 28.0547 6.04395V11H26.79V6.11914C26.79 5.59049 26.6693 5.19629 26.4277 4.93652C26.1862 4.6722 25.7806 4.54004 25.2109 4.54004C24.7415 4.54004 24.3519 4.68132 24.042 4.96387C23.7321 5.24186 23.5521 5.61784 23.502 6.0918V11H22.2305V6.15332C22.2305 5.0778 21.7041 4.54004 20.6514 4.54004C19.8219 4.54004 19.2546 4.89323 18.9492 5.59961V11H17.6846V3.60352H18.8809ZM36.2168 7.38379C36.2168 8.50944 35.9593 9.41634 35.4443 10.1045C34.9294 10.7926 34.2321 11.1367 33.3525 11.1367C32.4548 11.1367 31.7484 10.8519 31.2334 10.2822V13.8438H29.9688V3.60352H31.124L31.1855 4.42383C31.7005 3.78581 32.416 3.4668 33.332 3.4668C34.2207 3.4668 34.9225 3.80176 35.4375 4.47168C35.957 5.1416 36.2168 6.07357 36.2168 7.26758V7.38379ZM34.9521 7.24023C34.9521 6.40625 34.7744 5.74772 34.4189 5.26465C34.0635 4.78158 33.5758 4.54004 32.9561 4.54004C32.1904 4.54004 31.6162 4.87956 31.2334 5.55859V9.09277C31.6117 9.76725 32.1904 10.1045 32.9697 10.1045C33.5758 10.1045 34.0566 9.86523 34.4121 9.38672C34.7721 8.90365 34.9521 8.18815 34.9521 7.24023ZM37.4951 7.2334C37.4951 6.50879 37.6364 5.8571 37.9189 5.27832C38.2061 4.69954 38.6025 4.25293 39.1084 3.93848C39.6188 3.62402 40.1999 3.4668 40.8516 3.4668C41.8587 3.4668 42.6722 3.81543 43.292 4.5127C43.9163 5.20996 44.2285 6.13737 44.2285 7.29492V7.38379C44.2285 8.10384 44.0895 8.75098 43.8115 9.3252C43.5381 9.89486 43.1439 10.3392 42.6289 10.6582C42.1185 10.9772 41.5306 11.1367 40.8652 11.1367C39.8626 11.1367 39.0492 10.7881 38.4248 10.0908C37.805 9.39355 37.4951 8.4707 37.4951 7.32227V7.2334ZM38.7666 7.38379C38.7666 8.2041 38.9557 8.86263 39.334 9.35938C39.7168 9.85612 40.2272 10.1045 40.8652 10.1045C41.5078 10.1045 42.0182 9.85384 42.3965 9.35254C42.7747 8.84668 42.9639 8.1403 42.9639 7.2334C42.9639 6.4222 42.7702 5.76595 42.3828 5.26465C42 4.75879 41.4896 4.50586 40.8516 4.50586C40.2272 4.50586 39.7236 4.75423 39.3408 5.25098C38.958 5.74772 38.7666 6.45866 38.7666 7.38379ZM48.9521 7.2334C48.9521 6.50879 49.0934 5.8571 49.376 5.27832C49.6631 4.69954 50.0596 4.25293 50.5654 3.93848C51.0758 3.62402 51.6569 3.4668 52.3086 3.4668C53.3158 3.4668 54.1292 3.81543 54.749 4.5127C55.3734 5.20996 55.6855 6.13737 55.6855 7.29492V7.38379C55.6855 8.10384 55.5465 8.75098 55.2686 9.3252C54.9951 9.89486 54.6009 10.3392 54.0859 10.6582C53.5755 10.9772 52.9876 11.1367 52.3223 11.1367C51.3197 11.1367 50.5062 10.7881 49.8818 10.0908C49.262 9.39355 48.9521 8.4707 48.9521 7.32227V7.2334ZM50.2236 7.38379C50.2236 8.2041 50.4128 8.86263 50.791 9.35938C51.1738 9.85612 51.6842 10.1045 52.3223 10.1045C52.9648 10.1045 53.4753 9.85384 53.8535 9.35254C54.2318 8.84668 54.4209 8.1403 54.4209 7.2334C54.4209 6.4222 54.2272 5.76595 53.8398 5.26465C53.457 4.75879 52.9466 4.50586 52.3086 4.50586C51.6842 4.50586 51.1807 4.75423 50.7979 5.25098C50.415 5.74772 50.2236 6.45866 50.2236 7.38379ZM63.5332 7.38379C63.5332 8.514 63.2734 9.42318 62.7539 10.1113C62.2344 10.7949 61.5371 11.1367 60.6621 11.1367C59.7279 11.1367 59.0055 10.8063 58.4951 10.1455L58.4336 11H57.2715V0.5H58.5361V4.41699C59.0465 3.78353 59.7507 3.4668 60.6484 3.4668C61.5462 3.4668 62.2503 3.80632 62.7607 4.48535C63.2757 5.16439 63.5332 6.09408 63.5332 7.27441V7.38379ZM62.2686 7.24023C62.2686 6.37891 62.1022 5.71354 61.7695 5.24414C61.4368 4.77474 60.9583 4.54004 60.334 4.54004C59.5 4.54004 58.9007 4.92741 58.5361 5.70215V8.90137C58.9235 9.67611 59.5273 10.0635 60.3477 10.0635C60.9538 10.0635 61.4255 9.82878 61.7627 9.35938C62.0999 8.88997 62.2686 8.18359 62.2686 7.24023ZM68.708 4.73828C68.5166 4.70638 68.3092 4.69043 68.0859 4.69043C67.2565 4.69043 66.6937 5.04362 66.3975 5.75V11H65.1328V3.60352H66.3633L66.3838 4.45801C66.7985 3.7972 67.3864 3.4668 68.1475 3.4668C68.3936 3.4668 68.5804 3.4987 68.708 3.5625V4.73828ZM71.251 11H69.9863V3.60352H71.251V11ZM69.8838 1.6416C69.8838 1.43652 69.9453 1.26335 70.0684 1.12207C70.196 0.980794 70.3828 0.910156 70.6289 0.910156C70.875 0.910156 71.0618 0.980794 71.1895 1.12207C71.3171 1.26335 71.3809 1.43652 71.3809 1.6416C71.3809 1.84668 71.3171 2.01758 71.1895 2.1543C71.0618 2.29102 70.875 2.35938 70.6289 2.35938C70.3828 2.35938 70.196 2.29102 70.0684 2.1543C69.9453 2.01758 69.8838 1.84668 69.8838 1.6416ZM72.9805 7.24023C72.9805 6.08724 73.2471 5.17122 73.7803 4.49219C74.3135 3.80859 75.0199 3.4668 75.8994 3.4668C76.8018 3.4668 77.5059 3.78581 78.0117 4.42383L78.0732 3.60352H79.2285V10.8223C79.2285 11.7793 78.9437 12.5335 78.374 13.085C77.8089 13.6364 77.0479 13.9121 76.0908 13.9121C75.5576 13.9121 75.0358 13.7982 74.5254 13.5703C74.015 13.3424 73.6253 13.0303 73.3564 12.6338L74.0127 11.875C74.555 12.5449 75.2181 12.8799 76.002 12.8799C76.6172 12.8799 77.0957 12.7067 77.4375 12.3604C77.7839 12.014 77.957 11.5264 77.957 10.8975V10.2617C77.4512 10.8451 76.7607 11.1367 75.8857 11.1367C75.0199 11.1367 74.318 10.7881 73.7803 10.0908C73.2471 9.39355 72.9805 8.44336 72.9805 7.24023ZM74.252 7.38379C74.252 8.21777 74.4229 8.87402 74.7646 9.35254C75.1064 9.8265 75.585 10.0635 76.2002 10.0635C76.9977 10.0635 77.5833 9.70117 77.957 8.97656V5.59961C77.5697 4.89323 76.9886 4.54004 76.2139 4.54004C75.5986 4.54004 75.1178 4.7793 74.7715 5.25781C74.4251 5.73633 74.252 6.44499 74.252 7.38379ZM85.709 11C85.6361 10.8542 85.5768 10.5944 85.5312 10.2207C84.9434 10.8314 84.2415 11.1367 83.4258 11.1367C82.6966 11.1367 82.0973 10.9316 81.6279 10.5215C81.1631 10.1068 80.9307 9.58268 80.9307 8.94922C80.9307 8.17904 81.2223 7.58203 81.8057 7.1582C82.3936 6.72982 83.2184 6.51562 84.2803 6.51562H85.5107V5.93457C85.5107 5.49251 85.3786 5.1416 85.1143 4.88184C84.8499 4.61751 84.4603 4.48535 83.9453 4.48535C83.4941 4.48535 83.1159 4.59928 82.8105 4.82715C82.5052 5.05501 82.3525 5.33073 82.3525 5.6543H81.0811C81.0811 5.28516 81.2109 4.92969 81.4707 4.58789C81.735 4.24154 82.0905 3.9681 82.5371 3.76758C82.9883 3.56706 83.4827 3.4668 84.0205 3.4668C84.8727 3.4668 85.5404 3.68099 86.0234 4.10938C86.5065 4.5332 86.7572 5.11882 86.7754 5.86621V9.27051C86.7754 9.94954 86.862 10.4896 87.0352 10.8906V11H85.709ZM83.6104 10.0361C84.0068 10.0361 84.3828 9.93359 84.7383 9.72852C85.0938 9.52344 85.3512 9.25684 85.5107 8.92871V7.41113H84.5195C82.9701 7.41113 82.1953 7.86458 82.1953 8.77148C82.1953 9.16797 82.3275 9.47786 82.5918 9.70117C82.8561 9.92448 83.1956 10.0361 83.6104 10.0361ZM90.4736 1.8125V3.60352H91.8545V4.58105H90.4736V9.16797C90.4736 9.46419 90.5352 9.6875 90.6582 9.83789C90.7812 9.98372 90.9909 10.0566 91.2871 10.0566C91.4329 10.0566 91.6335 10.0293 91.8887 9.97461V11C91.556 11.0911 91.2324 11.1367 90.918 11.1367C90.3529 11.1367 89.9268 10.9658 89.6396 10.624C89.3525 10.2822 89.209 9.79688 89.209 9.16797V4.58105H87.8623V3.60352H89.209V1.8125H90.4736ZM92.8662 7.2334C92.8662 6.50879 93.0075 5.8571 93.29 5.27832C93.5771 4.69954 93.9736 4.25293 94.4795 3.93848C94.9899 3.62402 95.571 3.4668 96.2227 3.4668C97.2298 3.4668 98.0433 3.81543 98.6631 4.5127C99.2874 5.20996 99.5996 6.13737 99.5996 7.29492V7.38379C99.5996 8.10384 99.4606 8.75098 99.1826 9.3252C98.9092 9.89486 98.515 10.3392 98 10.6582C97.4896 10.9772 96.9017 11.1367 96.2363 11.1367C95.2337 11.1367 94.4202 10.7881 93.7959 10.0908C93.1761 9.39355 92.8662 8.4707 92.8662 7.32227V7.2334ZM94.1377 7.38379C94.1377 8.2041 94.3268 8.86263 94.7051 9.35938C95.0879 9.85612 95.5983 10.1045 96.2363 10.1045C96.8789 10.1045 97.3893 9.85384 97.7676 9.35254C98.1458 8.84668 98.335 8.1403 98.335 7.2334C98.335 6.4222 98.1413 5.76595 97.7539 5.26465C97.3711 4.75879 96.8607 4.50586 96.2227 4.50586C95.5983 4.50586 95.0947 4.75423 94.7119 5.25098C94.3291 5.74772 94.1377 6.45866 94.1377 7.38379ZM96.7969 0.5H98.3281L96.4961 2.50977H95.4775L96.7969 0.5ZM104.761 4.73828C104.569 4.70638 104.362 4.69043 104.139 4.69043C103.309 4.69043 102.746 5.04362 102.45 5.75V11H101.186V3.60352H102.416L102.437 4.45801C102.851 3.7972 103.439 3.4668 104.2 3.4668C104.446 3.4668 104.633 3.4987 104.761 3.5625V4.73828ZM107.304 11H106.039V3.60352H107.304V11ZM105.937 1.6416C105.937 1.43652 105.998 1.26335 106.121 1.12207C106.249 0.980794 106.436 0.910156 106.682 0.910156C106.928 0.910156 107.115 0.980794 107.242 1.12207C107.37 1.26335 107.434 1.43652 107.434 1.6416C107.434 1.84668 107.37 2.01758 107.242 2.1543C107.115 2.29102 106.928 2.35938 106.682 2.35938C106.436 2.35938 106.249 2.29102 106.121 2.1543C105.998 2.01758 105.937 1.84668 105.937 1.6416ZM108.999 7.2334C108.999 6.50879 109.14 5.8571 109.423 5.27832C109.71 4.69954 110.106 4.25293 110.612 3.93848C111.123 3.62402 111.704 3.4668 112.355 3.4668C113.363 3.4668 114.176 3.81543 114.796 4.5127C115.42 5.20996 115.732 6.13737 115.732 7.29492V7.38379C115.732 8.10384 115.593 8.75098 115.315 9.3252C115.042 9.89486 114.648 10.3392 114.133 10.6582C113.622 10.9772 113.035 11.1367 112.369 11.1367C111.367 11.1367 110.553 10.7881 109.929 10.0908C109.309 9.39355 108.999 8.4707 108.999 7.32227V7.2334ZM110.271 7.38379C110.271 8.2041 110.46 8.86263 110.838 9.35938C111.221 9.85612 111.731 10.1045 112.369 10.1045C113.012 10.1045 113.522 9.85384 113.9 9.35254C114.279 8.84668 114.468 8.1403 114.468 7.2334C114.468 6.4222 114.274 5.76595 113.887 5.26465C113.504 4.75879 112.993 4.50586 112.355 4.50586C111.731 4.50586 111.228 4.75423 110.845 5.25098C110.462 5.74772 110.271 6.45866 110.271 7.38379Z" fill="#FF0000"/>
</svg>
